<svg width="111" height="32" viewBox="0 0 111 32" fill="none" xmlns="http://www.w3.org/2000/svg">
<path d="M26.1322 10.7377L13.3489 2.91887C9.28415 0.432438 4 3.28435 4 7.96964V24.0266C4 27.7293 7.29302 30.2757 10.6685 29.9761V16.3636C10.5978 14.4284 11.8408 12.3973 13.938 11.3188C16.6596 9.91685 19.7994 10.6538 20.9423 12.9605C22.091 15.2672 20.8127 18.2749 18.0911 19.6709C16.0292 20.7313 13.7259 20.5636 12.2355 19.4192V29.6226C12.6537 29.4668 13.072 29.2631 13.4667 29.0055L26.2559 20.7673C29.9671 18.3767 29.9023 13.0384 26.1322 10.7377Z" fill="white"/>
<path d="M44.7511 17.566H41.9766V22.336H39.2643V9.07H44.9549C46.2668 9.07 47.3127 9.412 48.0928 10.096C48.8728 10.78 49.2628 11.839 49.2628 13.273C49.2628 14.839 48.8728 15.946 48.0928 16.594C47.3127 17.242 46.1988 17.566 44.7511 17.566ZM46.0275 14.803C46.382 14.485 46.5593 13.981 46.5593 13.291C46.5593 12.601 46.3791 12.109 46.0186 11.815C45.664 11.521 45.1647 11.374 44.5206 11.374H41.9766V15.28H44.5206C45.1647 15.28 45.667 15.121 46.0275 14.803Z" fill="white"/>
<path d="M59.0135 19.456C58.9485 20.038 58.65 20.629 58.1182 21.229C57.2909 22.183 56.1327 22.66 54.6436 22.66C53.4144 22.66 52.3301 22.258 51.3905 21.454C50.4509 20.65 49.9811 19.342 49.9811 17.53C49.9811 15.832 50.4036 14.53 51.2487 13.624C52.0996 12.718 53.2017 12.265 54.5549 12.265C55.3586 12.265 56.0825 12.418 56.7266 12.724C57.3707 13.03 57.9025 13.513 58.3221 14.173C58.7003 14.755 58.9455 15.43 59.0578 16.198C59.1228 16.648 59.1494 17.296 59.1376 18.142H52.5251C52.5605 19.126 52.8649 19.816 53.4381 20.212C53.7867 20.458 54.2063 20.581 54.6967 20.581C55.2168 20.581 55.6393 20.431 55.9643 20.131C56.1416 19.969 56.2982 19.744 56.4341 19.456H59.0135ZM56.5138 16.45C56.4725 15.772 56.2686 15.259 55.9022 14.911C55.5418 14.557 55.0927 14.38 54.5549 14.38C53.9699 14.38 53.5149 14.566 53.1899 14.938C52.8708 15.31 52.6699 15.814 52.5871 16.45H56.5138Z" fill="white"/>
<path d="M67.8157 22.336L66.3 15.19L64.7665 22.336H62.1428L59.4304 12.526H62.1428L63.6497 19.564L65.0413 12.526H67.603L69.0744 19.591L70.5812 12.526H73.2138L70.4128 22.336H67.8157Z" fill="white"/>
<path d="M80.004 17.566H77.2295V22.336H74.5172V9.07H80.2078C81.5197 9.07 82.5656 9.412 83.3457 10.096C84.1257 10.78 84.5157 11.839 84.5157 13.273C84.5157 14.839 84.1257 15.946 83.3457 16.594C82.5656 17.242 81.4517 17.566 80.004 17.566ZM81.2804 14.803C81.6349 14.485 81.8122 13.981 81.8122 13.291C81.8122 12.601 81.632 12.109 81.2715 11.815C80.9169 11.521 80.4176 11.374 79.7735 11.374H77.2295V15.28H79.7735C80.4176 15.28 80.9199 15.121 81.2804 14.803Z" fill="white"/>
<path d="M94.2664 19.456C94.2014 20.038 93.903 20.629 93.3711 21.229C92.5438 22.183 91.3856 22.66 89.8965 22.66C88.6673 22.66 87.583 22.258 86.6434 21.454C85.7038 20.65 85.234 19.342 85.234 17.53C85.234 15.832 85.6565 14.53 86.5016 13.624C87.3525 12.718 88.4546 12.265 89.8078 12.265C90.6115 12.265 91.3354 12.418 91.9795 12.724C92.6236 13.03 93.1554 13.513 93.575 14.173C93.9532 14.755 94.1984 15.43 94.3107 16.198C94.3757 16.648 94.4023 17.296 94.3905 18.142H87.778C87.8134 19.126 88.1178 19.816 88.691 20.212C89.0396 20.458 89.4592 20.581 89.9496 20.581C90.4697 20.581 90.8922 20.431 91.2172 20.131C91.3945 19.969 91.5511 19.744 91.687 19.456H94.2664ZM91.7667 16.45C91.7254 15.772 91.5215 15.259 91.1551 14.911C90.7947 14.557 90.3456 14.38 89.8078 14.38C89.2228 14.38 88.7678 14.566 88.4428 14.938C88.1237 15.31 87.9228 15.814 87.84 16.45H91.7667Z" fill="white"/>
<path d="M104.008 19.456C103.943 20.038 103.645 20.629 103.113 21.229C102.286 22.183 101.127 22.66 99.6383 22.66C98.4091 22.66 97.3248 22.258 96.3852 21.454C95.4456 20.65 94.9758 19.342 94.9758 17.53C94.9758 15.832 95.3984 14.53 96.2434 13.624C97.0943 12.718 98.1964 12.265 99.5496 12.265C100.353 12.265 101.077 12.418 101.721 12.724C102.365 13.03 102.897 13.513 103.317 14.173C103.695 14.755 103.94 15.43 104.052 16.198C104.118 16.648 104.144 17.296 104.132 18.142H97.5198C97.5552 19.126 97.8596 19.816 98.4328 20.212C98.7814 20.458 99.201 20.581 99.6914 20.581C100.211 20.581 100.634 20.431 100.959 20.131C101.136 19.969 101.293 19.744 101.429 19.456H104.008ZM101.509 16.45C101.467 15.772 101.263 15.259 100.897 14.911C100.536 14.557 100.087 14.38 99.5496 14.38C98.9646 14.38 98.5096 14.566 98.1846 14.938C97.8655 15.31 97.6646 15.814 97.5818 16.45H101.509Z" fill="white"/>
</svg>
