<?xml version="1.0" encoding="UTF-8"?>
<svg width="20px" height="20px" viewBox="0 0 20 20" version="1.1" xmlns="http://www.w3.org/2000/svg" xmlns:xlink="http://www.w3.org/1999/xlink">
    <title>mail</title>
    <g id="mail" stroke="none" stroke-width="1" fill="none" fill-rule="evenodd">
        <path d="M15.9882812,16.3603516 C16.7083333,16.3603516 17.2460938,16.1837565 17.6015625,15.8305664 C17.9570312,15.4773763 18.1347656,14.9498698 18.1347656,14.2480469 L18.1347656,5.89453125 C18.1347656,5.19270833 17.9570312,4.6640625 17.6015625,4.30859375 C17.2460938,3.953125 16.7083333,3.77539062 15.9882812,3.77539062 L4.16210938,3.77539062 C3.44661458,3.77539062 2.90999349,3.95198568 2.55224609,4.30517578 C2.1944987,4.65836589 2.015625,5.18815104 2.015625,5.89453125 L2.015625,14.2480469 C2.015625,14.9498698 2.1944987,15.4773763 2.55224609,15.8305664 C2.90999349,16.1837565 3.44661458,16.3603516 4.16210938,16.3603516 L15.9882812,16.3603516 Z M13.7255859,9.92773438 C13.4248047,9.92773438 13.1502279,9.85367839 12.9018555,9.70556641 C12.6534831,9.55745443 12.4552409,9.35921224 12.3071289,9.11083984 C12.1590169,8.86246745 12.0849609,8.58789062 12.0849609,8.28710938 C12.0849609,7.98632812 12.1590169,7.7117513 12.3071289,7.46337891 C12.4552409,7.21500651 12.6534831,7.01676432 12.9018555,6.86865234 C13.1502279,6.72054036 13.4248047,6.64648438 13.7255859,6.64648438 C14.0263672,6.64648438 14.2998047,6.72054036 14.5458984,6.86865234 C14.7919922,7.01676432 14.9890951,7.21500651 15.137207,7.46337891 C15.285319,7.7117513 15.359375,7.98632812 15.359375,8.28710938 C15.359375,8.58789062 15.285319,8.86246745 15.137207,9.11083984 C14.9890951,9.35921224 14.7919922,9.55745443 14.5458984,9.70556641 C14.2998047,9.85367839 14.0263672,9.92773438 13.7255859,9.92773438 Z M9.671875,7.91796875 L5.26269531,7.91796875 C5.12597656,7.91796875 5.01318359,7.87125651 4.92431641,7.77783203 C4.83544922,7.68440755 4.79101562,7.56933594 4.79101562,7.43261719 C4.79101562,7.30045573 4.83544922,7.18880208 4.92431641,7.09765625 C5.01318359,7.00651042 5.12597656,6.9609375 5.26269531,6.9609375 L9.671875,6.9609375 C9.80403646,6.9609375 9.91682943,7.00651042 10.0102539,7.09765625 C10.1036784,7.18880208 10.1503906,7.30045573 10.1503906,7.43261719 C10.1503906,7.56933594 10.1036784,7.68440755 10.0102539,7.77783203 C9.91682943,7.87125651 9.80403646,7.91796875 9.671875,7.91796875 Z M8.48925781,9.74316406 L5.26269531,9.74316406 C5.12597656,9.74316406 5.01318359,9.69645182 4.92431641,9.60302734 C4.83544922,9.50960286 4.79101562,9.3968099 4.79101562,9.26464844 C4.79101562,9.13248698 4.83544922,9.01969401 4.92431641,8.92626953 C5.01318359,8.83284505 5.12597656,8.78613281 5.26269531,8.78613281 L8.48925781,8.78613281 C8.62141927,8.78613281 8.73421224,8.83284505 8.82763672,8.92626953 C8.9210612,9.01969401 8.96777344,9.13248698 8.96777344,9.26464844 C8.96777344,9.3968099 8.9210612,9.50960286 8.82763672,9.60302734 C8.73421224,9.69645182 8.62141927,9.74316406 8.48925781,9.74316406 Z" id="􀣫" fill="#FFFFFF" fill-rule="nonzero"></path>
    </g>
</svg>