<?xml version="1.0" encoding="UTF-8"?>
<svg width="20px" height="20px" viewBox="0 0 20 20" version="1.1" xmlns="http://www.w3.org/2000/svg" xmlns:xlink="http://www.w3.org/1999/xlink">
    <title>megaphone</title>
    <g id="megaphone" stroke="none" stroke-width="1" fill="none" fill-rule="evenodd">
        <path d="M15.8027344,16.3671875 C16.0898438,16.3671875 16.3404948,16.3079427 16.5546875,16.1894531 C16.7688802,16.0709635 16.9352214,15.9046224 17.0537109,15.6904297 C17.1722005,15.476237 17.2314453,15.2278646 17.2314453,14.9453125 L17.2314453,3.96679688 C17.2314453,3.6796875 17.1722005,3.42903646 17.0537109,3.21484375 C16.9352214,3.00065104 16.7688802,2.8343099 16.5546875,2.71582031 C16.3404948,2.59733073 16.0898438,2.53808594 15.8027344,2.53808594 C15.5201823,2.53808594 15.2729492,2.59733073 15.0610352,2.71582031 C14.8491211,2.8343099 14.6839193,3.00065104 14.5654297,3.21484375 C14.4469401,3.42903646 14.3876953,3.6796875 14.3876953,3.96679688 L14.3876953,14.9453125 C14.3876953,15.2278646 14.4469401,15.476237 14.5654297,15.6904297 C14.6839193,15.9046224 14.8491211,16.0709635 15.0610352,16.1894531 C15.2729492,16.3079427 15.5201823,16.3671875 15.8027344,16.3671875 Z M13.4511719,14.671875 L13.4511719,4.28808594 L13.4511719,4.28808594 C12.813151,4.61621094 12.1455078,4.90332031 11.4482422,5.14941406 C10.7509766,5.39550781 10.0571289,5.59830729 9.36669922,5.7578125 C8.67626953,5.91731771 8.0234375,6.03125 7.40820312,6.09960938 L7.40820312,12.8603516 C8.08268229,12.9378255 8.7639974,13.0574544 9.45214844,13.2192383 C10.1402995,13.3810221 10.8204753,13.5826823 11.4926758,13.8242188 C12.1648763,14.0657552 12.8177083,14.3483073 13.4511719,14.671875 Z M6.47167969,12.8535156 L6.47167969,6.09960938 L4.87890625,6.09960938 C3.91276042,6.09960938 3.17789714,6.34342448 2.67431641,6.83105469 C2.17073568,7.3186849 1.91894531,8.02734375 1.91894531,8.95703125 L1.91894531,9.99609375 C1.91894531,10.9257812 2.17073568,11.6344401 2.67431641,12.1220703 C3.17789714,12.6097005 3.91276042,12.8535156 4.87890625,12.8535156 L6.47167969,12.8535156 Z M7.70898438,17.6728516 C7.99609375,17.6728516 8.25016276,17.6079102 8.47119141,17.4780273 C8.69222005,17.3481445 8.85286458,17.1590169 8.953125,16.9106445 C9.05338542,16.6622721 9.06477865,16.3580729 8.98730469,15.9980469 L8.53613281,13.8652344 C8.42220052,13.8196615 8.24332682,13.7809245 7.99951172,13.7490234 C7.75569661,13.7171224 7.50276693,13.6931966 7.24072266,13.6772461 C6.97867839,13.6612956 6.75878906,13.6510417 6.58105469,13.6464844 L4.82421875,13.6464844 L6.11621094,16.4492188 C6.2985026,16.8365885 6.50813802,17.1373698 6.74511719,17.3515625 C6.98209635,17.5657552 7.30338542,17.6728516 7.70898438,17.6728516 Z" id="􀬳" fill="#FFFFFF" fill-rule="nonzero"></path>
    </g>
</svg>